<svg xmlns="http://www.w3.org/2000/svg" width="1200" height="760" viewBox="0 0 1200 760">
<rect width="100%" height="100%" fill="#05080d" />
<text x="28.0" y="42.0" fill="#f8fafc" font-size="24" font-family="Arial">X500 Gimbal Tracker X500 gimbal SITL Result - Hunter follows target and triggers at 25m</text>
<rect x="40" y="74" width="540" height="430" fill="#0b1117" stroke="#334155" />
<text x="52.0" y="98.0" fill="#f8fafc" font-size="16" font-family="Arial">Top-down path: hunter vs target</text>
<line x1="88" y1="468" x2="556" y2="468" stroke="#64748b" />
<line x1="88" y1="110" x2="88" y2="468" stroke="#64748b" />
<polyline points="323.8,346.2 324.0,346.2 324.8,346.2 326.2,344.7 328.0,343.3 329.8,343.3 332.0,344.7 334.1,344.7 336.3,344.7 338.7,344.7 341.1,344.7 343.3,344.7 345.5,344.7 347.7,344.7 349.1,344.7 351.3,344.7 353.2,344.7 355.4,344.7 357.4,344.7 359.6,344.7 361.8,344.7 363.8,343.3 366.0,343.3 368.2,343.3 370.4,343.3 372.4,343.3 374.5,343.3 376.7,343.3 378.7,343.3 381.1,343.3 383.1,343.3 385.3,343.3 387.5,343.3 389.7,343.3 391.7,343.3 393.8,343.3 396.0,343.3 398.0,343.3 400.2,343.3 402.4,343.3 404.4,341.8 406.6,341.8 408.6,341.8 410.8,341.8 413.0,341.8 414.9,341.8 417.1,341.8 419.3,341.8 421.3,341.8 423.5,341.8 425.5,341.8 427.7,341.8 429.9,341.8 431.9,341.8 434.0,340.4 436.0,340.4 438.2,340.4 440.2,340.4 442.4,340.4 444.6,340.4 446.6,340.4 448.8,337.5 450.8,333.2 452.8,328.8 454.9,324.5 456.9,321.6 459.1,318.7 461.1,315.8 463.3,312.9 465.3,310.0 467.3,307.1 469.5,304.2 471.5,301.3 473.6,298.4 475.6,295.5 477.8,292.6 479.8,289.7 481.8,286.8 484.0,283.9 486.0,281.0 488.2,276.7 490.2,273.8 492.2,270.9 494.3,268.0 496.3,265.1 520.4,231.8 520.4,231.8 520.4,231.8 520.4,231.8 520.4,231.8 520.4,231.8 520.4,231.8 520.4,231.8 520.4,231.8 520.4,231.8 520.4,231.8 520.4,231.8 520.4,231.8 520.4,231.8 520.4,231.8" fill="none" stroke="#38bdf8" stroke-width="4" />
<polyline points="125.6,343.3 125.6,343.3 125.6,343.3 125.8,343.3 126.2,341.8 126.8,341.8 127.6,341.8 128.4,341.8 129.6,341.8 131.0,341.8 132.4,341.8 133.9,343.3 135.7,343.3 137.7,343.3 139.3,343.3 141.5,343.3 143.9,343.3 146.5,343.3 149.1,343.3 152.1,343.3 155.0,344.7 158.2,344.7 161.8,344.7 165.2,344.7 169.0,343.3 172.9,343.3 176.9,343.3 181.1,343.3 185.5,343.3 189.9,343.3 194.4,343.3 199.4,343.3 204.4,343.3 209.4,343.3 214.7,341.8 220.1,341.8 225.7,341.8 231.7,341.8 237.6,341.8 243.6,341.8 250.0,341.8 256.3,341.8 262.9,340.4 269.7,340.4 276.6,340.4 283.4,340.4 290.8,338.9 297.7,338.9 304.7,338.9 311.9,337.5 318.6,337.5 325.2,336.1 331.4,334.6 337.1,331.7 342.5,330.3 347.9,328.8 353.0,328.8 358.0,328.8 362.8,328.8 367.2,327.4 371.2,327.4 375.1,327.4 378.9,327.4 382.7,325.9 386.7,320.1 390.5,312.9 394.0,308.5 397.6,308.5 400.8,310.0 403.6,310.0 406.4,308.5 409.2,304.2 412.0,301.3 414.7,298.4 417.7,297.0 420.7,295.5 423.7,294.1 426.7,291.2 429.7,288.3 432.5,285.4 435.4,282.5 438.2,281.0 441.2,278.1 444.0,275.2 446.8,273.8 452.4,268.0 452.4,268.0 452.4,268.0 452.4,268.0 452.4,268.0 452.4,268.0 452.4,268.0 452.4,268.0 452.4,268.0 452.4,268.0 452.4,268.0 452.4,268.0 452.4,268.0 452.4,268.0 448.6,269.5" fill="none" stroke="#f97316" stroke-width="4" />
<circle cx="323.8" cy="346.2" r="5" fill="#38bdf8" />
<circle cx="125.6" cy="343.3" r="5" fill="#f97316" />
<circle cx="496.3" cy="265.1" r="7" fill="#22c55e" />
<circle cx="446.8" cy="273.8" r="7" fill="#ef4444" />
<text x="102.0" y="492.0" fill="#94a3b8" font-size="12" font-family="Arial">Easting m: -16 to 214</text>
<rect x="620" y="74" width="540" height="270" fill="#0b1117" stroke="#334155" />
<text x="632.0" y="98.0" fill="#f8fafc" font-size="16" font-family="Arial">Separation range over time</text>
<line x1="668" y1="308" x2="1136" y2="308" stroke="#64748b" />
<line x1="668" y1="110" x2="668" y2="308" stroke="#64748b" />
<line x1="674" y1="259.9" x2="1132" y2="259.9" stroke="#22c55e" stroke-dasharray="8 6" />
<text x="1000.0" y="251.9" fill="#22c55e" font-size="12" font-family="Arial">25m trigger radius</text>
<polyline points="674.0,134.3 676.5,134.3 679.0,133.7 681.6,132.7 684.0,131.3 686.5,130.1 689.1,129.1 691.6,128.0 694.1,127.1 696.7,126.3 699.1,125.4 701.7,124.9 704.2,124.6 706.7,124.4 709.1,124.6 711.6,124.6 714.2,124.9 716.7,125.3 719.2,125.8 721.8,126.4 724.2,127.3 726.7,128.1 729.3,129.3 731.8,130.3 734.3,131.7 736.9,133.2 739.3,134.9 741.9,136.5 744.4,138.4 746.9,140.4 749.4,142.4 752.0,144.8 754.4,147.1 757.0,149.7 759.5,152.4 762.0,155.1 764.5,158.1 767.1,161.3 769.5,164.3 772.1,167.7 774.6,171.4 777.1,174.9 779.6,178.6 782.2,182.8 784.7,186.7 787.2,190.7 789.8,195.1 792.2,199.2 794.7,203.4 797.3,207.6 799.8,211.6 802.3,215.3 804.9,218.8 807.3,221.9 809.8,224.7 812.4,227.4 814.9,230.0 817.4,232.3 820.0,234.7 822.4,236.5 824.9,238.2 827.5,239.7 830.0,241.2 832.5,242.7 835.1,244.3 837.5,245.6 840.1,247.1 842.6,248.3 845.1,249.1 847.6,249.8 850.2,250.5 852.6,251.0 855.2,251.5 857.7,252.3 860.2,252.8 862.7,253.7 865.3,254.5 867.7,255.2 870.3,256.0 872.8,256.7 875.3,257.4 877.8,258.1 880.4,258.7 882.9,259.4 885.4,260.1 990.9,244.3 1000.9,244.3 1011.0,244.4 1021.1,244.4 1031.1,244.3 1041.2,244.3 1051.3,244.3 1061.3,244.3 1071.4,244.3 1081.5,244.3 1091.5,244.3 1101.6,244.3 1111.7,244.3 1121.9,244.3 1132.0,241.2" fill="none" stroke="#a78bfa" stroke-width="4" />
<circle cx="885.4" cy="260.1" r="7" fill="#ef4444" />
<line x1="885.4" y1="116" x2="885.4" y2="302" stroke="#ef4444" stroke-dasharray="5 5" />
<text x="682.0" y="332.0" fill="#94a3b8" font-size="12" font-family="Arial">time 0-48.5s | final range 36.1m</text>
<rect x="620" y="380" width="540" height="270" fill="#0b1117" stroke="#334155" />
<text x="632.0" y="404.0" fill="#f8fafc" font-size="16" font-family="Arial">Altitude over time</text>
<line x1="668" y1="614" x2="1136" y2="614" stroke="#64748b" />
<line x1="668" y1="416" x2="668" y2="614" stroke="#64748b" />
<polyline points="674.0,542.5 676.5,541.5 679.0,541.8 681.6,541.8 684.0,541.8 686.5,541.8 689.1,541.8 691.6,541.8 694.1,542.2 696.7,542.2 699.1,542.2 701.7,542.2 704.2,542.2 706.7,542.2 709.1,542.2 711.6,542.2 714.2,542.2 716.7,542.2 719.2,542.2 721.8,542.2 724.2,542.2 726.7,542.2 729.3,542.2 731.8,542.2 734.3,542.2 736.9,542.5 739.3,542.5 741.9,542.5 744.4,542.5 746.9,542.5 749.4,542.5 752.0,542.5 754.4,542.8 757.0,542.8 759.5,542.8 762.0,542.8 764.5,542.8 767.1,542.8 769.5,543.1 772.1,543.1 774.6,543.1 777.1,543.1 779.6,543.1 782.2,543.4 784.7,543.4 787.2,543.4 789.8,543.7 792.2,543.7 794.7,544.0 797.3,544.0 799.8,543.7 802.3,542.8 804.9,541.8 807.3,540.9 809.8,540.3 812.4,540.0 814.9,540.0 817.4,540.0 820.0,540.0 822.4,539.7 824.9,539.3 827.5,539.3 830.0,539.7 832.5,540.0 835.1,540.3 837.5,540.6 840.1,540.6 842.6,540.3 845.1,540.3 847.6,540.3 850.2,540.6 852.6,540.9 855.2,541.2 857.7,541.5 860.2,541.8 862.7,541.8 865.3,542.2 867.7,542.5 870.3,542.5 872.8,542.8 875.3,542.8 877.8,542.8 880.4,543.1 882.9,543.1 885.4,543.4 990.9,519.7 1000.9,514.4 1011.0,505.3 1021.1,495.7 1031.1,486.0 1041.2,476.6 1051.3,466.9 1061.3,457.3 1071.4,447.6 1081.5,438.2 1091.5,431.1 1101.6,426.7 1111.7,424.2 1121.9,422.9 1132.0,422.0" fill="none" stroke="#f97316" stroke-width="4" />
<polyline points="674.0,542.5 676.5,541.5 679.0,541.2 681.6,541.2 684.0,541.2 686.5,541.2 689.1,541.2 691.6,541.5 694.1,541.5 696.7,541.8 699.1,541.8 701.7,541.8 704.2,541.8 706.7,541.8 709.1,541.8 711.6,541.8 714.2,541.8 716.7,542.2 719.2,542.2 721.8,542.2 724.2,542.2 726.7,542.2 729.3,542.2 731.8,542.5 734.3,542.5 736.9,542.5 739.3,542.5 741.9,542.5 744.4,542.5 746.9,542.5 749.4,542.5 752.0,542.5 754.4,542.5 757.0,542.5 759.5,542.5 762.0,542.5 764.5,542.5 767.1,542.5 769.5,542.5 772.1,542.5 774.6,542.5 777.1,542.5 779.6,542.5 782.2,542.5 784.7,542.5 787.2,542.5 789.8,542.5 792.2,542.8 794.7,542.8 797.3,542.8 799.8,542.8 802.3,542.8 804.9,542.8 807.3,542.8 809.8,542.8 812.4,543.1 814.9,543.1 817.4,543.1 820.0,543.1 822.4,543.1 824.9,543.1 827.5,543.1 830.0,543.1 832.5,543.1 835.1,543.4 837.5,543.4 840.1,543.4 842.6,543.4 845.1,543.4 847.6,543.4 850.2,543.7 852.6,543.7 855.2,543.7 857.7,543.7 860.2,543.7 862.7,543.7 865.3,544.0 867.7,544.0 870.3,544.0 872.8,544.0 875.3,544.0 877.8,544.0 880.4,544.3 882.9,544.3 885.4,544.3 990.9,608.0 1000.9,608.0 1011.0,608.0 1021.1,607.7 1031.1,607.7 1041.2,607.7 1051.3,607.4 1061.3,607.4 1071.4,607.4 1081.5,607.4 1091.5,607.4 1101.6,607.7 1111.7,607.7 1121.9,607.7 1132.0,607.7" fill="none" stroke="#38bdf8" stroke-width="4" />
<text x="682.0" y="638.0" fill="#94a3b8" font-size="12" font-family="Arial">hunter final 59.6m | target final 0.1m</text>
<text x="56.0" y="548.0" fill="#f97316" font-size="15" font-family="Arial">orange = hunter</text>
<text x="56.0" y="574.0" fill="#38bdf8" font-size="15" font-family="Arial">blue = target</text>
<text x="56.0" y="600.0" fill="#e2e8f0" font-size="15" font-family="Arial">red/green markers = proximity trigger moment</text>
<text x="56.0" y="640.0" fill="#e2e8f0" font-size="15" font-family="Arial">Start range: 99.6m</text>
<text x="56.0" y="666.0" fill="#e2e8f0" font-size="15" font-family="Arial">Closest/trigger range: 24.9m</text>
<text x="56.0" y="692.0" fill="#e2e8f0" font-size="15" font-family="Arial">Rows: 100 telemetry samples</text>
</svg>