<svg xmlns="http://www.w3.org/2000/svg" width="1200" height="760" viewBox="0 0 1200 760">
<rect width="100%" height="100%" fill="#05080d" />
<text x="28.0" y="42.0" fill="#f8fafc" font-size="24" font-family="Arial">Mothdrone VTOL SITL Result - Hunter follows target and triggers at 25m</text>
<rect x="40" y="74" width="540" height="430" fill="#0b1117" stroke="#334155" />
<text x="52.0" y="98.0" fill="#f8fafc" font-size="16" font-family="Arial">Top-down path: hunter vs target</text>
<line x1="88" y1="468" x2="556" y2="468" stroke="#64748b" />
<line x1="88" y1="110" x2="88" y2="468" stroke="#64748b" />
<polyline points="379.9,357.9 379.9,357.9 380.7,357.9 381.4,356.6 382.4,356.6 383.7,356.6 385.2,356.6 386.8,356.6 388.3,356.6 389.8,356.6 391.6,356.6 392.9,356.6 394.2,356.6 395.2,356.6 396.4,356.6 397.7,356.6 399.0,356.6 400.3,356.6 401.8,356.6 402.8,357.9 404.3,357.9 405.6,357.9 406.9,357.9 408.2,357.9 409.4,357.9 410.7,357.9 412.0,357.9 413.2,357.9 414.5,357.9 415.8,357.9 417.1,357.9 418.3,357.9 419.6,357.9 420.9,357.9 422.2,357.9 423.4,357.9 424.7,357.9 426.0,357.9 427.5,357.9 428.5,357.9 430.0,357.9 431.1,357.9 432.6,357.9 433.6,357.9 434.9,357.9 436.2,357.9 437.7,357.9 438.7,357.9 440.2,357.9 441.2,357.9 442.8,357.9 443.8,357.9 445.3,357.9 446.3,357.9 447.9,357.9 448.9,357.9 450.2,357.9 451.4,357.9 453.0,357.9 454.0,357.9 455.2,357.9 456.5,356.6 457.8,352.7 458.8,348.8 459.8,346.2 461.1,343.6 462.4,341.0 463.4,339.7 464.7,337.1 465.7,334.5 467.0,331.9 468.2,329.3 469.5,326.7 470.5,324.1 471.8,321.5 472.8,318.9 474.1,316.3 475.1,315.0 476.4,312.4 477.6,309.8 478.7,307.2 479.9,305.9 481.2,303.3 482.2,300.7 483.5,298.1 484.5,295.5 485.8,292.9 486.8,290.3 488.1,287.7 489.1,286.4 490.4,283.8 491.6,281.2 492.9,278.6 493.9,276.0 495.2,273.4 496.2,270.8 497.5,268.2 498.5,265.6 499.8,263.0 501.1,261.7 502.3,259.1 503.4,256.5 504.6,253.9 505.6,251.3 506.9,248.7 507.9,246.1 509.2,243.5 510.2,242.2 520.2,220.1 520.4,221.4 520.4,221.4 520.4,221.4 520.4,221.4 520.4,221.4 520.4,221.4 520.4,221.4 520.4,221.4 520.4,221.4 520.4,221.4 520.4,221.4 520.4,221.4 520.4,221.4 520.2,221.4" fill="none" stroke="#38bdf8" stroke-width="4" />
<polyline points="125.6,357.9 125.6,357.9 126.9,357.9 128.6,356.6 131.2,355.3 133.7,355.3 137.0,355.3 139.8,356.6 143.4,356.6 146.5,356.6 150.0,356.6 153.1,355.3 156.6,355.3 159.7,355.3 163.3,355.3 166.1,356.6 169.4,356.6 172.2,355.3 175.7,355.3 178.5,355.3 181.8,355.3 184.9,355.3 188.2,355.3 191.3,355.3 194.6,355.3 197.6,355.3 200.9,355.3 204.0,354.0 207.3,354.0 210.4,354.0 213.7,354.0 216.7,354.0 220.0,354.0 223.1,354.0 226.4,354.0 229.4,354.0 232.8,354.0 235.8,354.0 239.1,354.0 242.2,354.0 245.5,354.0 248.3,354.0 251.8,354.0 254.6,354.0 258.2,354.0 261.0,354.0 264.6,354.0 267.4,354.0 270.7,354.0 273.7,354.0 277.3,354.0 280.1,354.0 283.4,354.0 286.5,354.0 290.0,354.0 292.8,354.0 296.1,354.0 299.2,354.0 302.5,354.0 305.6,354.0 308.9,354.0 311.9,354.0 315.5,354.0 318.3,354.0 321.6,354.0 324.7,354.0 328.0,354.0 331.0,354.0 334.3,354.0 337.1,352.7 340.7,352.7 343.5,352.7 347.1,351.4 349.9,351.4 353.4,350.1 356.2,350.1 359.5,348.8 362.6,347.5 365.9,347.5 368.9,346.2 372.3,344.9 375.3,343.6 378.6,342.3 381.7,341.0 385.0,339.7 387.8,338.4 391.4,337.1 394.2,335.8 397.5,334.5 400.5,331.9 403.8,330.6 406.9,329.3 410.2,326.7 413.0,325.4 416.6,322.8 419.4,321.5 422.7,318.9 425.7,316.3 429.0,315.0 432.1,312.4 435.1,309.8 437.4,308.5 440.0,305.9 441.5,304.6 443.0,303.3 444.3,302.0 446.1,300.7 447.9,299.4 449.9,299.4 449.9,299.4 449.9,299.4 449.9,299.4 449.9,299.4 449.9,299.4 449.9,299.4 449.9,299.4 449.9,299.4 449.9,299.4 449.9,299.4 449.9,299.4 449.9,299.4 449.6,299.4 443.5,299.4" fill="none" stroke="#f97316" stroke-width="4" />
<circle cx="379.9" cy="357.9" r="5" fill="#38bdf8" />
<circle cx="125.6" cy="357.9" r="5" fill="#f97316" />
<circle cx="510.2" cy="242.2" r="7" fill="#22c55e" />
<circle cx="447.9" cy="299.4" r="7" fill="#ef4444" />
<text x="102.0" y="492.0" fill="#94a3b8" font-size="12" font-family="Arial">Easting m: -12 to 168</text>
<rect x="620" y="74" width="540" height="270" fill="#0b1117" stroke="#334155" />
<text x="632.0" y="98.0" fill="#f8fafc" font-size="16" font-family="Arial">Separation range over time</text>
<line x1="668" y1="308" x2="1136" y2="308" stroke="#64748b" />
<line x1="668" y1="110" x2="668" y2="308" stroke="#64748b" />
<line x1="674" y1="257.7" x2="1132" y2="257.7" stroke="#22c55e" stroke-dasharray="8 6" />
<text x="1000.0" y="249.7" fill="#22c55e" font-size="12" font-family="Arial">25m trigger radius</text>
<polyline points="674.0,124.9 676.4,124.9 678.6,125.2 680.7,125.9 683.0,126.8 685.1,127.9 687.3,129.1 689.4,130.2 691.7,131.2 693.8,132.5 696.0,133.7 698.1,135.1 700.4,136.7 702.5,138.0 704.7,139.6 706.8,140.8 709.1,142.1 711.2,143.1 713.4,144.5 715.5,145.8 717.8,147.0 719.9,148.3 722.1,149.7 724.2,150.9 726.5,152.3 728.6,153.6 730.8,155.0 732.9,156.2 735.2,157.7 737.3,158.9 739.5,160.3 741.6,161.6 743.9,163.0 746.0,164.2 748.2,165.6 750.3,166.9 752.6,168.3 754.7,169.5 756.9,171.0 759.0,172.0 761.3,173.4 763.4,174.7 765.6,176.1 767.7,177.3 770.0,178.8 772.1,180.0 774.3,181.4 776.4,182.7 778.7,184.1 780.8,185.3 783.0,186.7 785.1,188.0 787.4,189.4 789.5,190.6 791.7,192.1 793.8,193.3 796.1,194.7 798.2,196.0 800.4,197.4 802.5,198.6 804.8,200.0 806.9,201.3 809.1,202.9 811.2,204.3 813.5,205.7 815.6,207.0 817.8,208.4 819.9,209.8 822.2,211.2 824.3,212.5 826.5,213.9 828.6,215.1 830.9,216.5 833.0,218.0 835.2,219.4 837.3,220.6 839.6,222.0 841.7,223.5 843.9,224.9 846.0,226.1 848.3,227.7 850.4,228.9 852.6,230.4 854.7,231.6 857.0,233.2 859.1,234.4 861.3,235.9 863.4,237.1 865.7,238.5 867.8,239.9 870.0,241.4 872.1,242.6 874.4,244.0 876.5,245.3 878.7,246.9 880.8,248.1 883.1,249.5 885.2,250.8 887.4,252.2 889.5,253.4 891.8,254.7 893.9,255.7 896.1,256.4 898.2,256.6 900.5,256.8 902.6,257.0 904.8,257.3 906.9,257.7 1004.1,251.8 1013.2,251.8 1022.4,251.6 1031.4,251.6 1040.6,251.8 1049.7,251.8 1058.9,251.6 1068.0,251.6 1077.2,251.8 1086.2,251.6 1095.5,251.6 1104.5,251.6 1113.7,251.6 1122.8,251.6 1132.0,247.4" fill="none" stroke="#a78bfa" stroke-width="4" />
<circle cx="906.9" cy="257.7" r="7" fill="#ef4444" />
<line x1="906.9" y1="116" x2="906.9" y2="302" stroke="#ef4444" stroke-dasharray="5 5" />
<text x="682.0" y="332.0" fill="#94a3b8" font-size="12" font-family="Arial">time 0-52.6s | final range 30.8m</text>
<rect x="620" y="380" width="540" height="270" fill="#0b1117" stroke="#334155" />
<text x="632.0" y="404.0" fill="#f8fafc" font-size="16" font-family="Arial">Altitude over time</text>
<line x1="668" y1="614" x2="1136" y2="614" stroke="#64748b" />
<line x1="668" y1="416" x2="668" y2="614" stroke="#64748b" />
<polyline points="674.0,540.3 676.4,539.7 678.6,539.3 680.7,539.0 683.0,538.7 685.1,538.7 687.3,538.7 689.4,538.7 691.7,539.0 693.8,539.0 696.0,539.0 698.1,539.0 700.4,539.0 702.5,539.0 704.7,539.0 706.8,539.0 709.1,539.0 711.2,539.0 713.4,539.0 715.5,539.0 717.8,539.0 719.9,539.0 722.1,539.0 724.2,539.0 726.5,539.0 728.6,539.0 730.8,539.0 732.9,539.0 735.2,539.0 737.3,539.0 739.5,539.0 741.6,539.0 743.9,539.0 746.0,539.0 748.2,539.0 750.3,539.0 752.6,539.0 754.7,539.0 756.9,539.0 759.0,539.0 761.3,539.0 763.4,539.0 765.6,539.0 767.7,539.0 770.0,539.0 772.1,539.0 774.3,539.0 776.4,539.0 778.7,539.0 780.8,539.3 783.0,539.3 785.1,539.3 787.4,539.3 789.5,539.3 791.7,539.3 793.8,539.3 796.1,539.3 798.2,539.3 800.4,539.7 802.5,539.7 804.8,539.7 806.9,539.7 809.1,539.7 811.2,539.7 813.5,539.7 815.6,539.7 817.8,540.0 819.9,540.0 822.2,540.0 824.3,540.0 826.5,540.0 828.6,540.0 830.9,540.3 833.0,540.3 835.2,540.3 837.3,540.3 839.6,540.3 841.7,540.3 843.9,540.3 846.0,540.6 848.3,540.6 850.4,540.6 852.6,540.6 854.7,540.6 857.0,540.6 859.1,540.6 861.3,540.6 863.4,540.6 865.7,540.6 867.8,540.9 870.0,540.9 872.1,540.9 874.4,540.9 876.5,540.9 878.7,540.9 880.8,540.9 883.1,540.9 885.2,540.9 887.4,540.9 889.5,540.9 891.8,540.9 893.9,540.6 896.1,540.6 898.2,540.6 900.5,540.6 902.6,540.9 904.8,540.9 906.9,540.9 1004.1,517.2 1013.2,512.2 1022.4,502.8 1031.4,493.8 1040.6,483.8 1049.7,474.4 1058.9,464.8 1068.0,455.4 1077.2,445.4 1086.2,436.4 1095.5,430.1 1104.5,426.4 1113.7,423.9 1122.8,422.6 1132.0,422.0" fill="none" stroke="#f97316" stroke-width="4" />
<polyline points="674.0,539.0 676.4,538.7 678.6,538.7 680.7,538.7 683.0,538.7 685.1,538.7 687.3,538.7 689.4,538.7 691.7,538.7 693.8,538.7 696.0,538.7 698.1,538.7 700.4,538.7 702.5,538.7 704.7,538.7 706.8,538.7 709.1,538.7 711.2,538.7 713.4,538.7 715.5,538.7 717.8,538.7 719.9,538.7 722.1,538.7 724.2,538.7 726.5,538.7 728.6,538.7 730.8,538.7 732.9,538.7 735.2,538.7 737.3,538.7 739.5,538.7 741.6,538.7 743.9,538.7 746.0,538.7 748.2,538.7 750.3,538.7 752.6,538.7 754.7,538.7 756.9,538.7 759.0,538.7 761.3,538.7 763.4,538.7 765.6,538.7 767.7,538.7 770.0,538.7 772.1,538.7 774.3,538.4 776.4,538.4 778.7,538.4 780.8,538.4 783.0,538.4 785.1,538.4 787.4,538.4 789.5,538.4 791.7,538.4 793.8,538.4 796.1,538.4 798.2,538.4 800.4,538.4 802.5,538.4 804.8,538.4 806.9,538.4 809.1,538.4 811.2,538.4 813.5,538.4 815.6,538.4 817.8,538.4 819.9,538.4 822.2,538.1 824.3,538.1 826.5,538.1 828.6,538.1 830.9,538.1 833.0,538.1 835.2,538.1 837.3,538.1 839.6,538.1 841.7,538.1 843.9,538.1 846.0,538.1 848.3,538.1 850.4,538.1 852.6,538.1 854.7,538.1 857.0,538.1 859.1,538.1 861.3,538.1 863.4,538.1 865.7,538.1 867.8,538.1 870.0,538.1 872.1,538.1 874.4,538.1 876.5,538.1 878.7,538.1 880.8,538.1 883.1,538.1 885.2,538.1 887.4,538.1 889.5,538.1 891.8,538.1 893.9,538.1 896.1,538.1 898.2,538.1 900.5,538.1 902.6,538.1 904.8,538.1 906.9,538.1 1004.1,608.3 1013.2,608.0 1022.4,608.0 1031.4,608.0 1040.6,608.0 1049.7,608.0 1058.9,608.0 1068.0,608.0 1077.2,608.0 1086.2,608.0 1095.5,608.0 1104.5,608.0 1113.7,608.0 1122.8,608.0 1132.0,608.0" fill="none" stroke="#38bdf8" stroke-width="4" />
<text x="682.0" y="638.0" fill="#94a3b8" font-size="12" font-family="Arial">hunter final 59.6m | target final -0.0m</text>
<text x="56.0" y="548.0" fill="#f97316" font-size="15" font-family="Arial">orange = hunter</text>
<text x="56.0" y="574.0" fill="#38bdf8" font-size="15" font-family="Arial">blue = target</text>
<text x="56.0" y="600.0" fill="#e2e8f0" font-size="15" font-family="Arial">red/green markers = proximity trigger moment</text>
<text x="56.0" y="640.0" fill="#e2e8f0" font-size="15" font-family="Arial">Start range: 99.9m</text>
<text x="56.0" y="666.0" fill="#e2e8f0" font-size="15" font-family="Arial">Closest/trigger range: 25.0m</text>
<text x="56.0" y="692.0" fill="#e2e8f0" font-size="15" font-family="Arial">Rows: 123 telemetry samples</text>
</svg>