<svg xmlns="http://www.w3.org/2000/svg" width="1200" height="720" viewBox="0 0 1200 720">
<rect width="1200" height="720" fill="#05080d"/>
<text x="32" y="44" fill="#f8fafc" font-family="Arial" font-size="28">Wavel Swarm Dynamic Following And Object Confirmation</text>
<text x="32" y="74" fill="#94a3b8" font-family="Arial" font-size="16">Non-destructive simulated object tag; spacing and mesh communication preserved.</text>
<line x1="70.0" y1="650.0" x2="1120.0" y2="650.0" stroke="#1e293b"/>
<line x1="70.0" y1="570.8" x2="1120.0" y2="570.8" stroke="#1e293b"/>
<line x1="70.0" y1="491.7" x2="1120.0" y2="491.7" stroke="#1e293b"/>
<line x1="70.0" y1="412.5" x2="1120.0" y2="412.5" stroke="#1e293b"/>
<line x1="70.0" y1="333.3" x2="1120.0" y2="333.3" stroke="#1e293b"/>
<line x1="70.0" y1="254.2" x2="1120.0" y2="254.2" stroke="#1e293b"/>
<line x1="70.0" y1="175.0" x2="1120.0" y2="175.0" stroke="#1e293b"/>
<polyline points="207.1,602.5 211.2,598.8 215.3,595.1 219.4,591.4 223.5,587.7 227.6,584.0 231.7,580.3 235.8,576.6 239.9,572.9 244.0,569.2 248.1,565.6 252.2,561.9 256.3,558.2 260.4,554.5 264.5,550.8 268.6,547.1 272.7,543.4 276.8,539.7 280.9,536.0 285.0,532.3 289.1,528.6 293.2,524.9 297.3,521.2 301.4,517.5 305.5,513.8 309.6,510.1 313.8,506.4 317.9,502.7 322.0,499.1 326.1,495.4 330.2,491.7 334.3,488.0 338.4,484.3 342.5,480.6 346.6,476.9 350.7,473.2 354.8,469.5 358.9,465.8 363.0,462.1 367.1,458.4 371.2,454.7 375.3,451.0 379.4,447.3 383.5,443.6 387.6,439.9 391.7,436.2 395.8,432.6 399.9,428.9 404.0,425.2 408.1,421.5 412.2,417.8 416.3,414.1 420.4,410.4 424.5,406.7 428.6,403.0 432.7,399.3 436.8,395.6 440.9,391.9 445.0,388.2 449.1,384.5 453.2,380.8 457.3,377.1 461.4,373.4 465.5,369.7 469.6,366.1 473.7,362.4 477.8,358.7 481.9,355.0 486.0,351.3 490.1,347.6 494.2,343.9 498.3,340.2 502.4,336.5 506.5,332.8 510.6,329.1 514.7,325.4 518.8,321.7 522.9,318.0 527.0,314.3 531.1,310.6 535.2,306.9 539.3,303.2 543.4,299.6 547.5,295.9 551.6,292.2 555.7,288.5 559.8,284.8 563.9,281.1 568.0,277.4 572.2,273.7 576.3,270.0 580.4,266.3 584.4,262.6 588.5,258.9 592.5,255.2 596.5,251.5 600.5,247.9 604.5,244.2 608.5,240.5 612.5,236.8 616.5,233.1" fill="none" stroke="#f97316" stroke-width="4" stroke-linecap="round" stroke-linejoin="round"/>
<circle cx="616.5" cy="233.1" r="8" fill="#f97316"/>
<text x="626.5" y="225.1" fill="#f97316" font-family="Arial" font-size="14">W1</text>
<polyline points="298.5,602.5 302.4,598.8 306.2,595.0 310.0,591.3 313.9,587.6 317.7,583.9 321.6,580.1 325.4,576.4 329.3,572.7 333.1,569.0 336.9,565.2 340.8,561.5 344.6,557.8 348.5,554.0 352.3,550.3 356.2,546.6 360.0,542.9 363.8,539.1 367.7,535.4 371.5,531.7 375.4,527.9 379.2,524.2 383.1,520.5 386.9,516.8 390.7,513.0 394.6,509.3 398.4,505.6 402.3,501.9 406.1,498.1 410.0,494.4 413.8,490.7 417.6,486.9 421.5,483.2 425.3,479.5 429.2,475.8 433.0,472.0 436.9,468.3 440.7,464.6 444.5,460.8 448.4,457.1 452.2,453.4 456.1,449.7 459.9,445.9 463.8,442.2 467.6,438.5 471.4,434.8 475.3,431.0 479.1,427.3 483.0,423.6 486.8,419.8 490.7,416.1 494.5,412.4 498.3,408.7 502.2,404.9 506.0,401.2 509.9,397.5 513.7,393.7 517.6,390.0 521.4,386.3 525.2,382.6 529.1,378.8 532.9,375.1 536.8,371.4 540.6,367.7 544.5,363.9 548.3,360.2 552.1,356.5 556.0,352.7 559.8,349.0 563.7,345.3 567.5,341.6 571.4,337.8 575.2,334.1 579.0,330.4 582.9,326.6 586.7,322.9 590.6,319.2 594.4,315.5 598.3,311.7 602.1,308.0 605.9,304.3 609.8,300.6 613.6,296.8 617.5,293.1 621.3,289.4 625.2,285.6 629.0,281.9 632.8,278.2 636.7,274.5 640.5,270.7 644.4,267.0 648.2,263.3 652.1,259.5 656.0,255.8 659.9,252.1 663.9,248.4 667.8,244.6 671.8,240.9 675.7,237.1 679.7,233.4 683.6,229.7" fill="none" stroke="#38bdf8" stroke-width="4" stroke-linecap="round" stroke-linejoin="round"/>
<circle cx="683.6" cy="229.7" r="8" fill="#38bdf8"/>
<text x="693.6" y="221.7" fill="#38bdf8" font-family="Arial" font-size="14">W2</text>
<polyline points="389.9,602.5 393.5,598.7 397.1,595.0 400.8,591.2 404.4,587.5 408.0,583.7 411.6,580.0 415.2,576.2 418.8,572.5 422.4,568.7 426.1,564.9 429.7,561.2 433.3,557.4 436.9,553.7 440.5,549.9 444.1,546.2 447.7,542.4 451.3,538.7 455.0,534.9 458.6,531.2 462.2,527.4 465.8,523.6 469.4,519.9 473.0,516.1 476.6,512.4 480.2,508.6 483.9,504.9 487.5,501.1 491.1,497.4 494.7,493.6 498.3,489.8 501.9,486.1 505.5,482.3 509.2,478.6 512.8,474.8 516.4,471.1 520.0,467.3 523.6,463.6 527.2,459.8 530.8,456.0 534.4,452.3 538.1,448.5 541.7,444.8 545.3,441.0 548.9,437.3 552.5,433.5 556.1,429.8 559.7,426.0 563.4,422.3 567.0,418.5 570.6,414.7 574.2,411.0 577.8,407.2 581.4,403.5 585.0,399.7 588.6,396.0 592.3,392.2 595.9,388.5 599.5,384.7 603.1,380.9 606.7,377.2 610.3,373.4 613.9,369.7 617.5,365.9 621.2,362.2 624.8,358.4 628.4,354.7 632.0,350.9 635.6,347.1 639.2,343.4 642.8,339.6 646.5,335.9 650.1,332.1 653.7,328.4 657.3,324.6 660.9,320.9 664.5,317.1 668.1,313.3 671.7,309.6 675.4,305.8 679.0,302.1 682.6,298.3 686.2,294.6 689.8,290.8 693.4,287.1 697.0,283.3 700.6,279.6 704.3,275.8 707.9,272.0 711.5,268.3 715.1,264.5 718.7,260.8 722.3,257.0 725.9,253.3 729.6,249.5 733.2,245.8 736.8,242.0 740.4,238.2 744.0,234.5 747.6,230.7 751.3,227.0" fill="none" stroke="#22c55e" stroke-width="4" stroke-linecap="round" stroke-linejoin="round"/>
<circle cx="751.3" cy="227.0" r="8" fill="#22c55e"/>
<text x="761.3" y="219.0" fill="#22c55e" font-family="Arial" font-size="14">W3</text>
<polyline points="481.3,602.5 485.2,598.8 489.0,595.0 492.9,591.3 496.7,587.6 500.5,583.9 504.4,580.1 508.2,576.4 512.1,572.7 515.9,569.0 519.8,565.2 523.6,561.5 527.4,557.8 531.3,554.0 535.1,550.3 539.0,546.6 542.8,542.9 546.7,539.1 550.5,535.4 554.3,531.7 558.2,527.9 562.0,524.2 565.9,520.5 569.7,516.8 573.6,513.0 577.4,509.3 581.2,505.6 585.1,501.9 588.9,498.1 592.8,494.4 596.6,490.7 600.5,486.9 604.3,483.2 608.1,479.5 612.0,475.8 615.8,472.0 619.7,468.3 623.5,464.6 627.4,460.8 631.2,457.1 635.0,453.4 638.9,449.7 642.7,445.9 646.6,442.2 650.4,438.5 654.3,434.8 658.1,431.0 661.9,427.3 665.8,423.6 669.6,419.8 673.5,416.1 677.3,412.4 681.2,408.7 685.0,404.9 688.8,401.2 692.7,397.5 696.5,393.7 700.4,390.0 704.2,386.3 708.1,382.6 711.9,378.8 715.7,375.1 719.6,371.4 723.4,367.7 727.3,363.9 731.1,360.2 735.0,356.5 738.8,352.7 742.6,349.0 746.5,345.3 750.3,341.6 754.2,337.8 758.0,334.1 761.9,330.4 765.7,326.6 769.5,322.9 773.4,319.2 777.2,315.5 781.1,311.7 784.9,308.0 788.8,304.3 792.6,300.6 796.4,296.8 800.3,293.1 804.1,289.4 808.0,285.6 811.8,281.9 815.7,278.2 819.5,274.5 823.3,270.7 827.2,267.0 831.0,263.3 834.9,259.5 838.7,255.8 842.6,252.1 846.4,248.4 850.2,244.6 854.1,240.9 857.9,237.2 861.8,233.5 865.6,229.7" fill="none" stroke="#eab308" stroke-width="4" stroke-linecap="round" stroke-linejoin="round"/>
<circle cx="865.6" cy="229.7" r="8" fill="#eab308"/>
<text x="875.6" y="221.7" fill="#eab308" font-family="Arial" font-size="14">W4</text>
<polyline points="572.7,602.5 576.8,598.8 580.9,595.1 585.0,591.4 589.1,587.7 593.2,584.0 597.3,580.3 601.4,576.6 605.5,572.9 609.6,569.2 613.7,565.6 617.8,561.9 622.0,558.2 626.1,554.5 630.2,550.8 634.3,547.1 638.4,543.4 642.5,539.7 646.6,536.0 650.7,532.3 654.8,528.6 658.9,524.9 663.0,521.2 667.1,517.5 671.2,513.8 675.3,510.1 679.4,506.4 683.5,502.7 687.6,499.1 691.7,495.4 695.8,491.7 699.9,488.0 704.0,484.3 708.1,480.6 712.2,476.9 716.3,473.2 720.4,469.5 724.5,465.8 728.6,462.1 732.7,458.4 736.8,454.7 740.9,451.0 745.0,447.3 749.1,443.6 753.2,439.9 757.3,436.2 761.4,432.6 765.5,428.9 769.6,425.2 773.7,421.5 777.8,417.8 781.9,414.1 786.0,410.4 790.1,406.7 794.2,403.0 798.3,399.3 802.4,395.6 806.5,391.9 810.6,388.2 814.7,384.5 818.8,380.8 822.9,377.1 827.0,373.4 831.1,369.7 835.2,366.1 839.3,362.4 843.4,358.7 847.5,355.0 851.6,351.3 855.7,347.6 859.8,343.9 863.9,340.2 868.0,336.5 872.1,332.8 876.2,329.1 880.4,325.4 884.5,321.7 888.6,318.0 892.7,314.3 896.8,310.6 900.9,306.9 905.0,303.2 909.1,299.6 913.2,295.9 917.3,292.2 921.4,288.5 925.5,284.8 929.6,281.1 933.7,277.4 937.8,273.7 941.9,270.0 946.0,266.3 950.1,262.6 954.2,258.9 958.3,255.2 962.4,251.5 966.5,247.8 970.6,244.1 974.7,240.4 978.8,236.7 982.9,233.1" fill="none" stroke="#a78bfa" stroke-width="4" stroke-linecap="round" stroke-linejoin="round"/>
<circle cx="982.9" cy="233.1" r="8" fill="#a78bfa"/>
<text x="992.9" y="225.1" fill="#a78bfa" font-family="Arial" font-size="14">W5</text>
<rect x="830.9" y="111.5" width="32" height="32" fill="#ef4444" opacity="0.85"/>
<text x="868.9" y="132.5" fill="#fecaca" font-family="Arial" font-size="16">object B</text>
<text x="32" y="690" fill="#cbd5e1" font-family="Arial" font-size="16">min separation: 5.9 m | confirmed: 5/5</text>
</svg>